<svg viewBox="0 0 587 254" fill="none" xmlns="http://www.w3.org/2000/svg">
<path fill="currentColor" d="M193.734 233.602V139.071H204.853V233.602H193.734ZM216.347 233.602V223.988L235.844 148.309H218.119V139.071H247.338V147.557L227.841 224.364H246.908V233.602H216.347ZM252.387 233.602L266.728 139.071H280.102L295.731 233.602H285.258L282.572 215.555H265.438L262.968 233.602H252.387ZM266.674 206.532H281.176L273.71 156.581H273.549L266.674 206.532ZM306.205 233.602V139.071H326.024C331.037 139.071 334.743 139.966 337.143 141.756C339.542 143.511 341.099 146.179 341.815 149.759C342.567 153.304 342.943 157.78 342.943 163.187C342.943 169.024 342.353 173.661 341.171 177.098C339.989 180.536 337.698 182.756 334.296 183.758C336.015 184.045 337.429 184.779 338.539 185.96C339.685 187.142 340.58 188.986 341.225 191.493C341.869 193.999 342.317 197.365 342.567 201.59C342.854 205.78 342.997 211.061 342.997 217.435C342.997 218.044 342.997 218.921 342.997 220.067C342.997 221.213 343.015 222.466 343.051 223.827C343.087 225.187 343.122 226.53 343.158 227.855C343.23 229.18 343.319 230.361 343.427 231.4C343.534 232.403 343.677 233.137 343.856 233.602H332.792C332.649 233.28 332.523 232.564 332.416 231.454C332.309 230.344 332.219 228.875 332.147 227.049C332.076 225.223 332.022 223.057 331.986 220.55C331.951 218.008 331.933 215.179 331.933 212.064C331.933 208.913 331.933 205.475 331.933 201.751C331.933 198.171 331.771 195.449 331.449 193.587C331.163 191.69 330.447 190.383 329.301 189.667C328.191 188.915 326.4 188.467 323.93 188.324L317.323 187.948V233.602H306.205ZM317.323 179.784H324.413C326.454 179.784 328.012 179.39 329.086 178.602C330.196 177.778 330.948 176.167 331.342 173.768C331.736 171.333 331.933 167.699 331.933 162.865V162.22C331.933 158.21 331.736 155.184 331.342 153.143C330.984 151.066 330.268 149.67 329.193 148.954C328.119 148.237 326.49 147.879 324.306 147.879H317.323V179.784ZM356.693 233.602V139.071H374.472C379.413 139.071 383.262 140.109 386.02 142.186C388.777 144.227 390.71 147.163 391.82 150.995C392.93 154.826 393.485 159.409 393.485 164.745L393.539 206.263C393.539 212.637 392.895 217.847 391.605 221.893C390.352 225.903 388.293 228.858 385.429 230.755C382.6 232.653 378.822 233.602 374.096 233.602H356.693ZM367.758 224.632H373.451C375.456 224.632 377.121 224.203 378.446 223.343C379.771 222.448 380.756 220.801 381.4 218.402C382.081 216.003 382.421 212.529 382.421 207.982V164.476C382.421 158.532 381.723 154.289 380.326 151.747C378.93 149.168 376.638 147.879 373.451 147.879H367.758V224.632Z" fill="white"/>
<path fill="currentColor" fill-rule="evenodd" clip-rule="evenodd" d="M395.282 26.2315C410.324 16.9985 438.512 3.66873 476.055 3.66873C536.773 3.66873 586.118 53.0133 586.179 113.853C586.179 151.091 571.687 186.127 545.333 212.481C518.98 238.835 483.943 253.326 446.706 253.326C418.395 253.326 395.343 230.274 395.343 201.964C395.343 181.725 411.791 165.277 432.031 165.277C448.234 165.277 461.38 178.423 461.38 194.627C461.38 206.733 451.536 216.639 439.368 216.639C435.333 216.639 432.031 213.337 432.031 209.302C432.031 205.266 435.333 201.964 439.368 201.964C443.404 201.964 446.706 198.662 446.706 194.627C446.706 186.555 440.102 179.952 432.031 179.952C419.924 179.952 410.018 189.796 410.018 201.964C410.018 222.203 426.466 238.651 446.706 238.651C515.494 238.651 571.504 182.642 571.504 113.853C571.504 61.2068 528.702 18.4048 476.055 18.4048C425.61 18.4048 393.081 45.6758 392.775 45.9815C390.635 47.877 387.578 48.3051 384.948 47.0822C382.319 45.8592 380.668 43.2911 380.668 40.4173V18.7106C375.654 19.1386 370.824 20.0558 366.177 21.3398C367.216 24.4583 367.767 27.8213 367.767 31.2454C367.767 48.4273 353.764 62.4297 336.582 62.4297C327.9 62.4297 320.073 58.8833 314.386 53.1356C304.664 62.6743 297.755 71.7238 294.27 76.7378C293.169 78.3887 292.557 80.2842 292.557 82.2409C292.557 87.4994 296.838 91.7796 302.096 91.7796H373.27C377.305 91.7796 380.607 95.0815 380.607 99.1171C380.607 103.153 377.305 106.455 373.27 106.455H302.096C288.766 106.455 277.882 95.6318 277.882 82.2409C277.882 77.2269 279.411 72.3964 282.285 68.2997C286.687 62.0017 295.003 51.1178 306.682 40.1115C305.887 37.2377 305.398 34.3027 305.398 31.1843C305.398 14.0023 319.4 0 336.582 0C344.776 0 352.297 3.24072 357.861 8.4381C367.767 5.25853 377.794 3.66873 387.945 3.66873C391.98 3.66873 395.282 6.9706 395.282 11.0062V26.2315ZM334.687 33.569C341.441 33.569 346.916 28.0938 346.916 21.3398C346.916 14.5859 341.441 9.11072 334.687 9.11072C327.933 9.11072 322.458 14.5859 322.458 21.3398C322.458 28.0938 327.933 33.569 334.687 33.569Z" fill="white"/>
<path fill="currentColor" d="M420.963 106.393C424.999 106.393 428.301 103.092 428.301 99.056C428.301 95.0204 424.999 91.7185 420.963 91.7185C398.706 91.7185 380.607 109.818 380.607 132.075C380.607 136.11 383.909 139.412 387.945 139.412C391.98 139.412 395.282 136.11 395.282 132.075C395.282 117.95 406.839 106.393 420.963 106.393Z" fill="white"/>
<path fill="currentColor" d="M523.749 132.075C523.749 117.889 535.306 106.393 549.43 106.393C553.466 106.393 556.768 103.092 556.768 99.056C556.768 95.0204 553.466 91.7185 549.43 91.7185C527.173 91.7185 509.074 109.818 509.074 132.075C509.074 136.11 512.376 139.412 516.412 139.412C520.447 139.412 523.749 136.171 523.749 132.075Z" fill="white"/>
<path fill="currentColor" d="M501.737 106.393C505.772 106.393 509.074 103.092 509.074 99.056C509.074 95.0204 505.772 91.7185 501.737 91.7185H446.706C442.67 91.7185 439.368 95.0204 439.368 99.056C439.368 103.092 442.67 106.393 446.706 106.393H501.737Z" fill="white"/>
<path fill="currentColor" d="M70 120.513C70 114.551 70 124.793 70 107.417C70 85.6964 8 86.9741 8 107.417C8 127.86 8 196.855 8 217.298C8 237.74 70 240.296 70 217.298C70 209.951 70 208.141 70 203.882M102 92.0848C109 230.074 133.5 231.991 139.5 231.991C145.5 231.991 170.5 230.074 173 92.0848" stroke="white" stroke-width="16" stroke-linecap="round"/>
</svg>
